<mxfile host="app.diagrams.net" modified="2024-01-17T02:48:43.626Z" agent="Mozilla/5.0 (Windows NT 10.0; Win64; x64) AppleWebKit/537.36 (KHTML, like Gecko) Chrome/120.0.0.0 Safari/537.36" etag="BjwJ3ESso3p1XpJnYELh" version="22.1.18" type="github">
  <diagram name="Page-1" id="2GRAYQbGgwGCQ1bq4cRz">
    <mxGraphModel dx="1083" dy="560" grid="1" gridSize="10" guides="1" tooltips="1" connect="1" arrows="1" fold="1" page="1" pageScale="1" pageWidth="1654" pageHeight="2336" math="0" shadow="0">
      <root>
        <mxCell id="0" />
        <mxCell id="1" parent="0" />
        <mxCell id="MpMOlBdk-1zB-H3q664x-13" value=": Puissance fournie par la batterie&lt;br&gt;P&lt;font style=&quot;font-size: 8px;&quot;&gt;b&lt;/font&gt; = V&lt;font style=&quot;border-color: var(--border-color); font-size: 8px;&quot;&gt;b&lt;/font&gt;&amp;nbsp;* I&lt;font style=&quot;font-size: 8px;&quot;&gt;b&lt;/font&gt;" style="rounded=1;whiteSpace=wrap;html=1;fillColor=#f5f5f5;fontColor=#333333;strokeColor=#666666;" parent="1" vertex="1">
          <mxGeometry x="149.93" y="160" width="160" height="80" as="geometry" />
        </mxCell>
        <mxCell id="MpMOlBdk-1zB-H3q664x-16" value="Force appliquée&amp;nbsp;à &lt;br&gt;la roue&lt;br&gt;F = τ / r&amp;nbsp;" style="rounded=1;whiteSpace=wrap;html=1;arcSize=18;fillColor=#f5f5f5;fontColor=#333333;strokeColor=#666666;" parent="1" vertex="1">
          <mxGeometry x="490" y="160" width="150" height="80" as="geometry" />
        </mxCell>
        <mxCell id="MpMOlBdk-1zB-H3q664x-18" value="Vitesse Lineaire&lt;br&gt;V = w * r" style="rounded=1;whiteSpace=wrap;html=1;fillColor=#f5f5f5;fontColor=#333333;strokeColor=#666666;" parent="1" vertex="1">
          <mxGeometry x="850" y="340" width="160" height="90" as="geometry" />
        </mxCell>
        <mxCell id="MpMOlBdk-1zB-H3q664x-19" value="Couple Moteur&amp;nbsp;&lt;br&gt;τ = P/ w" style="rounded=1;whiteSpace=wrap;html=1;fillColor=#f5f5f5;fontColor=#333333;strokeColor=#666666;" parent="1" vertex="1">
          <mxGeometry x="500" y="420" width="140" height="70" as="geometry" />
        </mxCell>
        <mxCell id="MpMOlBdk-1zB-H3q664x-20" value=": Puissance Consomé par le moteur&amp;nbsp;&lt;br&gt;P&lt;span style=&quot;font-size: 8px;&quot;&gt;m&lt;/span&gt;&amp;nbsp;= V&lt;span style=&quot;font-size: 8px;&quot;&gt;m&lt;/span&gt;&amp;nbsp;* I&lt;span style=&quot;font-size: 8px;&quot;&gt;m&lt;/span&gt;" style="rounded=1;whiteSpace=wrap;html=1;fillColor=#f5f5f5;fontColor=#333333;strokeColor=#666666;" parent="1" vertex="1">
          <mxGeometry x="159.93" y="420" width="150" height="80" as="geometry" />
        </mxCell>
        <mxCell id="MpMOlBdk-1zB-H3q664x-25" value="" style="strokeColor=inherit;fillColor=inherit;gradientColor=inherit;shape=rect;html=1;fontSize=10;verticalLabelPosition=top;verticalAlign=bottom;" parent="1" vertex="1">
          <mxGeometry x="269.93" y="230" width="20" height="20" as="geometry" />
        </mxCell>
        <mxCell id="MpMOlBdk-1zB-H3q664x-33" style="edgeStyle=orthogonalEdgeStyle;rounded=0;orthogonalLoop=1;jettySize=auto;html=1;exitX=0.5;exitY=1;exitDx=0;exitDy=0;entryX=0.5;entryY=0;entryDx=0;entryDy=0;endArrow=none;endFill=0;" parent="1" source="MpMOlBdk-1zB-H3q664x-27" target="MpMOlBdk-1zB-H3q664x-28" edge="1">
          <mxGeometry relative="1" as="geometry" />
        </mxCell>
        <mxCell id="MpMOlBdk-1zB-H3q664x-125" value="V&lt;font style=&quot;border-color: var(--border-color); background-color: rgb(251, 251, 251); font-size: 8px;&quot;&gt;b&lt;/font&gt;&amp;nbsp;: V(tension)" style="edgeLabel;html=1;align=center;verticalAlign=middle;resizable=0;points=[];" parent="MpMOlBdk-1zB-H3q664x-33" vertex="1" connectable="0">
          <mxGeometry x="-0.8371" y="-1" relative="1" as="geometry">
            <mxPoint x="-29" as="offset" />
          </mxGeometry>
        </mxCell>
        <mxCell id="MpMOlBdk-1zB-H3q664x-27" value="" style="strokeColor=inherit;fillColor=inherit;gradientColor=inherit;shape=rect;html=1;fontSize=10;verticalLabelPosition=top;verticalAlign=bottom;" parent="1" vertex="1">
          <mxGeometry x="179.93" y="230" width="20" height="20" as="geometry" />
        </mxCell>
        <mxCell id="MpMOlBdk-1zB-H3q664x-28" value="" style="strokeColor=inherit;fillColor=inherit;gradientColor=inherit;shape=rect;html=1;fontSize=10;verticalLabelPosition=top;verticalAlign=bottom;" parent="1" vertex="1">
          <mxGeometry x="179.93" y="410" width="20" height="20" as="geometry" />
        </mxCell>
        <mxCell id="MpMOlBdk-1zB-H3q664x-29" value="" style="strokeColor=inherit;fillColor=inherit;gradientColor=inherit;shape=rect;html=1;fontSize=10;verticalLabelPosition=top;verticalAlign=bottom;" parent="1" vertex="1">
          <mxGeometry x="269.93" y="410" width="20" height="20" as="geometry" />
        </mxCell>
        <mxCell id="MpMOlBdk-1zB-H3q664x-36" style="edgeStyle=orthogonalEdgeStyle;rounded=0;orthogonalLoop=1;jettySize=auto;html=1;exitX=1;exitY=0.5;exitDx=0;exitDy=0;entryX=1;entryY=0.5;entryDx=0;entryDy=0;endArrow=none;endFill=0;" parent="1" source="MpMOlBdk-1zB-H3q664x-31" target="MpMOlBdk-1zB-H3q664x-32" edge="1">
          <mxGeometry relative="1" as="geometry">
            <mxPoint x="359.93" y="460" as="targetPoint" />
            <Array as="points">
              <mxPoint x="410" y="200" />
              <mxPoint x="410" y="460" />
            </Array>
          </mxGeometry>
        </mxCell>
        <mxCell id="MpMOlBdk-1zB-H3q664x-130" value="P&lt;font style=&quot;border-color: var(--border-color); background-color: rgb(251, 251, 251); font-size: 8px;&quot;&gt;b&lt;/font&gt;&amp;nbsp;: W" style="edgeLabel;html=1;align=center;verticalAlign=middle;resizable=0;points=[];" parent="MpMOlBdk-1zB-H3q664x-36" vertex="1" connectable="0">
          <mxGeometry x="-0.9433" relative="1" as="geometry">
            <mxPoint x="8" y="-10" as="offset" />
          </mxGeometry>
        </mxCell>
        <mxCell id="MpMOlBdk-1zB-H3q664x-31" value="" style="strokeColor=inherit;fillColor=inherit;gradientColor=inherit;shape=rect;html=1;fontSize=10;verticalLabelPosition=top;verticalAlign=bottom;" parent="1" vertex="1">
          <mxGeometry x="299.93" y="190" width="20" height="20" as="geometry" />
        </mxCell>
        <mxCell id="MpMOlBdk-1zB-H3q664x-32" value="" style="strokeColor=inherit;fillColor=inherit;gradientColor=inherit;shape=rect;html=1;fontSize=10;verticalLabelPosition=top;verticalAlign=bottom;" parent="1" vertex="1">
          <mxGeometry x="299.93" y="450" width="20" height="20" as="geometry" />
        </mxCell>
        <mxCell id="MpMOlBdk-1zB-H3q664x-35" style="edgeStyle=orthogonalEdgeStyle;rounded=0;orthogonalLoop=1;jettySize=auto;html=1;exitX=0.5;exitY=1;exitDx=0;exitDy=0;entryX=0.5;entryY=0;entryDx=0;entryDy=0;endArrow=none;endFill=0;" parent="1" source="MpMOlBdk-1zB-H3q664x-25" target="MpMOlBdk-1zB-H3q664x-29" edge="1">
          <mxGeometry relative="1" as="geometry" />
        </mxCell>
        <mxCell id="MpMOlBdk-1zB-H3q664x-127" value="I&lt;font style=&quot;border-color: var(--border-color); background-color: rgb(251, 251, 251); font-size: 8px;&quot;&gt;b&lt;/font&gt;&amp;nbsp;: A (courant)" style="edgeLabel;html=1;align=center;verticalAlign=middle;resizable=0;points=[];" parent="MpMOlBdk-1zB-H3q664x-35" vertex="1" connectable="0">
          <mxGeometry x="-0.8734" y="-1" relative="1" as="geometry">
            <mxPoint x="41" as="offset" />
          </mxGeometry>
        </mxCell>
        <mxCell id="MpMOlBdk-1zB-H3q664x-39" style="edgeStyle=orthogonalEdgeStyle;rounded=0;orthogonalLoop=1;jettySize=auto;html=1;exitX=0;exitY=0.5;exitDx=0;exitDy=0;entryX=1;entryY=0.5;entryDx=0;entryDy=0;endArrow=none;endFill=0;" parent="1" source="MpMOlBdk-1zB-H3q664x-38" target="MpMOlBdk-1zB-H3q664x-32" edge="1">
          <mxGeometry relative="1" as="geometry">
            <mxPoint x="400" y="460" as="targetPoint" />
          </mxGeometry>
        </mxCell>
        <mxCell id="MpMOlBdk-1zB-H3q664x-132" value="P : W" style="edgeLabel;html=1;align=center;verticalAlign=middle;resizable=0;points=[];" parent="MpMOlBdk-1zB-H3q664x-39" vertex="1" connectable="0">
          <mxGeometry x="-0.7944" y="-1" relative="1" as="geometry">
            <mxPoint y="11" as="offset" />
          </mxGeometry>
        </mxCell>
        <mxCell id="MpMOlBdk-1zB-H3q664x-38" value="" style="strokeColor=inherit;fillColor=inherit;gradientColor=inherit;shape=rect;html=1;fontSize=10;verticalLabelPosition=top;verticalAlign=bottom;" parent="1" vertex="1">
          <mxGeometry x="490" y="450" width="20" height="20" as="geometry" />
        </mxCell>
        <mxCell id="MpMOlBdk-1zB-H3q664x-40" value="" style="strokeColor=inherit;fillColor=inherit;gradientColor=inherit;shape=rect;html=1;fontSize=10;verticalLabelPosition=top;verticalAlign=bottom;" parent="1" vertex="1">
          <mxGeometry x="630" y="190" width="20" height="20" as="geometry" />
        </mxCell>
        <mxCell id="MpMOlBdk-1zB-H3q664x-68" style="edgeStyle=orthogonalEdgeStyle;rounded=0;orthogonalLoop=1;jettySize=auto;html=1;exitX=0;exitY=0.5;exitDx=0;exitDy=0;entryX=1;entryY=0.5;entryDx=0;entryDy=0;endArrow=none;endFill=0;" parent="1" source="MpMOlBdk-1zB-H3q664x-43" target="MpMOlBdk-1zB-H3q664x-59" edge="1">
          <mxGeometry relative="1" as="geometry" />
        </mxCell>
        <mxCell id="MpMOlBdk-1zB-H3q664x-117" value="&lt;font style=&quot;font-size: 10px;&quot;&gt;w = rad/s &lt;br&gt;(vitesse angulaire)&lt;/font&gt;" style="edgeLabel;html=1;align=center;verticalAlign=middle;resizable=0;points=[];" parent="MpMOlBdk-1zB-H3q664x-68" vertex="1" connectable="0">
          <mxGeometry x="-0.692" y="2" relative="1" as="geometry">
            <mxPoint x="-7" y="18" as="offset" />
          </mxGeometry>
        </mxCell>
        <mxCell id="MpMOlBdk-1zB-H3q664x-118" value="w = rad/s" style="edgeLabel;html=1;align=center;verticalAlign=middle;resizable=0;points=[];" parent="MpMOlBdk-1zB-H3q664x-68" vertex="1" connectable="0">
          <mxGeometry x="0.8181" y="1" relative="1" as="geometry">
            <mxPoint y="14" as="offset" />
          </mxGeometry>
        </mxCell>
        <mxCell id="MpMOlBdk-1zB-H3q664x-43" value="" style="strokeColor=inherit;fillColor=inherit;gradientColor=inherit;shape=rect;html=1;fontSize=10;verticalLabelPosition=top;verticalAlign=bottom;" parent="1" vertex="1">
          <mxGeometry x="840" y="390" width="20" height="20" as="geometry" />
        </mxCell>
        <mxCell id="MpMOlBdk-1zB-H3q664x-69" style="edgeStyle=orthogonalEdgeStyle;rounded=0;orthogonalLoop=1;jettySize=auto;html=1;exitX=0;exitY=0.5;exitDx=0;exitDy=0;entryX=1;entryY=0.5;entryDx=0;entryDy=0;endArrow=none;endFill=0;" parent="1" source="MpMOlBdk-1zB-H3q664x-44" target="MpMOlBdk-1zB-H3q664x-40" edge="1">
          <mxGeometry relative="1" as="geometry" />
        </mxCell>
        <mxCell id="MpMOlBdk-1zB-H3q664x-116" value="&lt;font style=&quot;font-size: 10px;&quot;&gt;r : m(mètre)&lt;/font&gt;" style="edgeLabel;html=1;align=center;verticalAlign=middle;resizable=0;points=[];" parent="MpMOlBdk-1zB-H3q664x-69" vertex="1" connectable="0">
          <mxGeometry x="0.8372" y="3" relative="1" as="geometry">
            <mxPoint x="4" y="-13" as="offset" />
          </mxGeometry>
        </mxCell>
        <mxCell id="MpMOlBdk-1zB-H3q664x-44" value="" style="strokeColor=inherit;fillColor=inherit;gradientColor=inherit;shape=rect;html=1;fontSize=10;verticalLabelPosition=top;verticalAlign=bottom;" parent="1" vertex="1">
          <mxGeometry x="840" y="350" width="20" height="20" as="geometry" />
        </mxCell>
        <mxCell id="MpMOlBdk-1zB-H3q664x-49" value="" style="strokeColor=inherit;fillColor=inherit;gradientColor=inherit;shape=rect;html=1;fontSize=10;verticalLabelPosition=top;verticalAlign=bottom;" parent="1" vertex="1">
          <mxGeometry x="560" y="410" width="20" height="20" as="geometry" />
        </mxCell>
        <mxCell id="MpMOlBdk-1zB-H3q664x-121" style="edgeStyle=orthogonalEdgeStyle;rounded=0;orthogonalLoop=1;jettySize=auto;html=1;exitX=0.5;exitY=0;exitDx=0;exitDy=0;endArrow=none;endFill=0;" parent="1" source="MpMOlBdk-1zB-H3q664x-53" edge="1">
          <mxGeometry relative="1" as="geometry">
            <mxPoint x="565.090909090909" y="100" as="targetPoint" />
          </mxGeometry>
        </mxCell>
        <mxCell id="MpMOlBdk-1zB-H3q664x-53" value="" style="strokeColor=inherit;fillColor=inherit;gradientColor=inherit;shape=rect;html=1;fontSize=10;verticalLabelPosition=top;verticalAlign=bottom;" parent="1" vertex="1">
          <mxGeometry x="555" y="150" width="20" height="20" as="geometry" />
        </mxCell>
        <mxCell id="MpMOlBdk-1zB-H3q664x-57" style="edgeStyle=orthogonalEdgeStyle;rounded=0;orthogonalLoop=1;jettySize=auto;html=1;exitX=0.5;exitY=1;exitDx=0;exitDy=0;entryX=0.5;entryY=0;entryDx=0;entryDy=0;endArrow=none;endFill=0;" parent="1" source="MpMOlBdk-1zB-H3q664x-55" target="MpMOlBdk-1zB-H3q664x-49" edge="1">
          <mxGeometry relative="1" as="geometry" />
        </mxCell>
        <mxCell id="MpMOlBdk-1zB-H3q664x-119" value="τ : Nm(couple moteur)" style="edgeLabel;html=1;align=center;verticalAlign=middle;resizable=0;points=[];" parent="MpMOlBdk-1zB-H3q664x-57" vertex="1" connectable="0">
          <mxGeometry x="0.8594" y="1" relative="1" as="geometry">
            <mxPoint x="54" y="1" as="offset" />
          </mxGeometry>
        </mxCell>
        <mxCell id="MpMOlBdk-1zB-H3q664x-120" value="τ : Nm(couple moteur)" style="edgeLabel;html=1;align=center;verticalAlign=middle;resizable=0;points=[];" parent="MpMOlBdk-1zB-H3q664x-57" vertex="1" connectable="0">
          <mxGeometry x="-0.8815" relative="1" as="geometry">
            <mxPoint x="60" as="offset" />
          </mxGeometry>
        </mxCell>
        <mxCell id="MpMOlBdk-1zB-H3q664x-55" value="" style="strokeColor=inherit;fillColor=inherit;gradientColor=inherit;shape=rect;html=1;fontSize=10;verticalLabelPosition=top;verticalAlign=bottom;" parent="1" vertex="1">
          <mxGeometry x="560" y="230" width="20" height="20" as="geometry" />
        </mxCell>
        <mxCell id="MpMOlBdk-1zB-H3q664x-59" value="" style="strokeColor=inherit;fillColor=inherit;gradientColor=inherit;shape=rect;html=1;fontSize=10;verticalLabelPosition=top;verticalAlign=bottom;" parent="1" vertex="1">
          <mxGeometry x="630" y="445" width="20" height="20" as="geometry" />
        </mxCell>
        <mxCell id="MpMOlBdk-1zB-H3q664x-61" value="Accéleration&lt;br&gt;a=derive(V/t)" style="rounded=1;whiteSpace=wrap;html=1;fillColor=#f5f5f5;fontColor=#333333;strokeColor=#666666;" parent="1" vertex="1">
          <mxGeometry x="860" y="162.5" width="150" height="75" as="geometry" />
        </mxCell>
        <mxCell id="MpMOlBdk-1zB-H3q664x-67" style="edgeStyle=orthogonalEdgeStyle;rounded=0;orthogonalLoop=1;jettySize=auto;html=1;exitX=0.5;exitY=1;exitDx=0;exitDy=0;entryX=0.5;entryY=0;entryDx=0;entryDy=0;endArrow=none;endFill=0;" parent="1" source="MpMOlBdk-1zB-H3q664x-62" target="MpMOlBdk-1zB-H3q664x-65" edge="1">
          <mxGeometry relative="1" as="geometry">
            <Array as="points" />
          </mxGeometry>
        </mxCell>
        <mxCell id="MpMOlBdk-1zB-H3q664x-113" value="&lt;font style=&quot;font-size: 10px;&quot;&gt;V : m/s&lt;/font&gt;" style="edgeLabel;html=1;align=center;verticalAlign=middle;resizable=0;points=[];" parent="MpMOlBdk-1zB-H3q664x-67" vertex="1" connectable="0">
          <mxGeometry x="-0.7212" y="-1" relative="1" as="geometry">
            <mxPoint x="18" y="-5" as="offset" />
          </mxGeometry>
        </mxCell>
        <mxCell id="MpMOlBdk-1zB-H3q664x-114" value="&lt;font style=&quot;font-size: 10px;&quot;&gt;V : m/s&lt;/font&gt;" style="edgeLabel;html=1;align=center;verticalAlign=middle;resizable=0;points=[];" parent="MpMOlBdk-1zB-H3q664x-67" vertex="1" connectable="0">
          <mxGeometry x="0.749" y="-2" relative="1" as="geometry">
            <mxPoint x="22" as="offset" />
          </mxGeometry>
        </mxCell>
        <mxCell id="MpMOlBdk-1zB-H3q664x-62" value="" style="strokeColor=inherit;fillColor=inherit;gradientColor=inherit;shape=rect;html=1;fontSize=10;verticalLabelPosition=top;verticalAlign=bottom;" parent="1" vertex="1">
          <mxGeometry x="920" y="227.5" width="20" height="20" as="geometry" />
        </mxCell>
        <mxCell id="MpMOlBdk-1zB-H3q664x-134" style="edgeStyle=orthogonalEdgeStyle;rounded=0;orthogonalLoop=1;jettySize=auto;html=1;exitX=0.5;exitY=0;exitDx=0;exitDy=0;endArrow=none;endFill=0;" parent="1" source="MpMOlBdk-1zB-H3q664x-63" edge="1">
          <mxGeometry relative="1" as="geometry">
            <mxPoint x="890" y="100" as="targetPoint" />
          </mxGeometry>
        </mxCell>
        <mxCell id="MpMOlBdk-1zB-H3q664x-63" value="" style="strokeColor=inherit;fillColor=inherit;gradientColor=inherit;shape=rect;html=1;fontSize=10;verticalLabelPosition=top;verticalAlign=bottom;" parent="1" vertex="1">
          <mxGeometry x="880" y="152.5" width="20" height="20" as="geometry" />
        </mxCell>
        <mxCell id="MpMOlBdk-1zB-H3q664x-135" style="edgeStyle=orthogonalEdgeStyle;rounded=0;orthogonalLoop=1;jettySize=auto;html=1;exitX=0.5;exitY=0;exitDx=0;exitDy=0;endArrow=none;endFill=0;" parent="1" source="MpMOlBdk-1zB-H3q664x-64" edge="1">
          <mxGeometry relative="1" as="geometry">
            <mxPoint x="967.1428571428571" y="100" as="targetPoint" />
          </mxGeometry>
        </mxCell>
        <mxCell id="MpMOlBdk-1zB-H3q664x-64" value="" style="strokeColor=inherit;fillColor=inherit;gradientColor=inherit;shape=rect;html=1;fontSize=10;verticalLabelPosition=top;verticalAlign=bottom;" parent="1" vertex="1">
          <mxGeometry x="957" y="152.5" width="20" height="20" as="geometry" />
        </mxCell>
        <mxCell id="MpMOlBdk-1zB-H3q664x-65" value="" style="strokeColor=inherit;fillColor=inherit;gradientColor=inherit;shape=rect;html=1;fontSize=10;verticalLabelPosition=top;verticalAlign=bottom;" parent="1" vertex="1">
          <mxGeometry x="920" y="330" width="20" height="20" as="geometry" />
        </mxCell>
        <mxCell id="MpMOlBdk-1zB-H3q664x-122" value="F : N (force)" style="rounded=0;whiteSpace=wrap;html=1;fillColor=#dae8fc;strokeColor=#6c8ebf;" parent="1" vertex="1">
          <mxGeometry x="525" y="70" width="80" height="40" as="geometry" />
        </mxCell>
        <mxCell id="MpMOlBdk-1zB-H3q664x-124" value="&lt;font style=&quot;font-size: 10px;&quot;&gt;r : m(rayon)&lt;/font&gt;" style="edgeLabel;html=1;align=center;verticalAlign=middle;resizable=0;points=[];" parent="1" vertex="1" connectable="0">
          <mxGeometry x="810.0011111111113" y="350" as="geometry" />
        </mxCell>
        <mxCell id="MpMOlBdk-1zB-H3q664x-126" value="V&lt;span style=&quot;font-size: 8px; background-color: rgb(251, 251, 251);&quot;&gt;m&lt;/span&gt;&amp;nbsp;: V(tension)" style="edgeLabel;html=1;align=center;verticalAlign=middle;resizable=0;points=[];" parent="1" vertex="1" connectable="0">
          <mxGeometry x="70.00000000000006" y="385.0005128205128" as="geometry">
            <mxPoint x="76" y="16" as="offset" />
          </mxGeometry>
        </mxCell>
        <mxCell id="MpMOlBdk-1zB-H3q664x-128" value="I&lt;span style=&quot;font-size: 8px; background-color: rgb(251, 251, 251);&quot;&gt;m&lt;/span&gt;&amp;nbsp;: A (courant)" style="edgeLabel;html=1;align=center;verticalAlign=middle;resizable=0;points=[];" parent="1" vertex="1" connectable="0">
          <mxGeometry x="319.9300000000002" y="399.9964102564103" as="geometry" />
        </mxCell>
        <mxCell id="MpMOlBdk-1zB-H3q664x-131" value="P&lt;span style=&quot;font-size: 8px; background-color: rgb(251, 251, 251);&quot;&gt;m&lt;/span&gt;&amp;nbsp;: W" style="edgeLabel;html=1;align=center;verticalAlign=middle;resizable=0;points=[];" parent="1" vertex="1" connectable="0">
          <mxGeometry x="330.00379310344823" y="480" as="geometry">
            <mxPoint x="12" y="-9" as="offset" />
          </mxGeometry>
        </mxCell>
        <mxCell id="MpMOlBdk-1zB-H3q664x-136" value="a :&amp;nbsp;m/s&lt;sup style=&quot;line-height: 1; font-size: 11.2px; color: rgb(32, 33, 34); font-family: sans-serif; text-align: start; background-color: rgb(255, 255, 255);&quot;&gt;2&lt;/sup&gt;" style="rounded=0;whiteSpace=wrap;html=1;fillColor=#dae8fc;strokeColor=#6c8ebf;" parent="1" vertex="1">
          <mxGeometry x="860" y="70" width="60" height="30" as="geometry" />
        </mxCell>
        <mxCell id="MpMOlBdk-1zB-H3q664x-137" value="t : s" style="rounded=0;whiteSpace=wrap;html=1;fillColor=#dae8fc;strokeColor=#6c8ebf;" parent="1" vertex="1">
          <mxGeometry x="942" y="70" width="50" height="30" as="geometry" />
        </mxCell>
      </root>
    </mxGraphModel>
  </diagram>
</mxfile>
